<svg width="164" height="16" viewBox="0 0 164 16" fill="none" xmlns="http://www.w3.org/2000/svg"><path d="M15.66 15h-2.578V4.014L9.01 12.539H6.93L2.877 4.063V15H.299V.352H3.58l4.395 9.365L12.359.352h3.301V15zm8.608 0V.352h9.287v2.265h-6.71v3.858h6.32V8.73h-6.32v4.004h6.807V15h-9.384zm23.87 0H45.56V2.617h-4.453V.352h11.475v2.265h-4.443V15zm22.534 0H59.568v-1.924l7.608-10.459h-7.217V.352h10.586v2.021l-7.54 10.361h7.667V15zM81.29.352h-2.578V15h2.578V.352zM103.014 15h-2.91L92.467 4.346V15h-2.578V.352h2.91l7.637 10.664V.352h2.578V15zm19.349-11.24a4.687 4.687 0 0 0-1.66-1.065 5.594 5.594 0 0 0-2.041-.37c-.736 0-1.409.126-2.021.38a4.504 4.504 0 0 0-1.573 1.094 4.89 4.89 0 0 0-1.025 1.68c-.241.644-.361 1.36-.361 2.148 0 .794.12 1.523.361 2.187a5.19 5.19 0 0 0 1.035 1.71c.449.481.98.852 1.592 1.113a5.11 5.11 0 0 0 2.021.39c.638 0 1.224-.097 1.758-.293a4.293 4.293 0 0 0 1.406-.859 4.56 4.56 0 0 0 1.006-1.357 5.578 5.578 0 0 0 .518-1.758h-4.629V6.768h6.904l.069.976c0 1.113-.173 2.132-.518 3.057a7.014 7.014 0 0 1-1.455 2.392 6.532 6.532 0 0 1-2.246 1.553c-.866.365-1.823.547-2.871.547-1.081 0-2.084-.192-3.008-.576a7.51 7.51 0 0 1-2.412-1.602 7.477 7.477 0 0 1-1.602-2.422c-.377-.924-.566-1.93-.566-3.017 0-1.081.189-2.084.566-3.008a7.537 7.537 0 0 1 1.592-2.432 7.21 7.21 0 0 1 2.402-1.601 7.74 7.74 0 0 1 2.999-.576 8.22 8.22 0 0 1 2.929.527 7.886 7.886 0 0 1 2.51 1.514l-1.68 1.66zM133.764 15V.352h9.287v2.265h-6.709v3.858h6.318V8.73h-6.318v4.004h6.806V15h-9.384zm29.32 0h-2.861l-3.213-5.508h-2.774V15h-2.578V.352h5.401c1.139 0 2.112.182 2.92.546.807.365 1.429.89 1.865 1.573.436.677.654 1.494.654 2.45 0 1.016-.251 1.88-.752 2.589-.501.703-1.211 1.217-2.129 1.543L163.084 15zm-8.848-7.617h2.637c.944 0 1.676-.209 2.197-.625.528-.417.791-1.003.791-1.758 0-.755-.26-1.341-.781-1.758-.521-.416-1.256-.625-2.207-.625h-2.637v4.766z" fill="#fff"/></svg>