<svg width="194" height="22" fill="none" xmlns="http://www.w3.org/2000/svg"><path d="M22.324 21h-3.61V5.62l-5.7 11.935h-2.912L4.428 5.688V21H.818V.492h4.594l6.153 13.111L17.703.494h4.621V21Zm7.65 0V.492h13.003v3.172h-9.393v5.4h8.846v3.159h-8.846v5.605h9.53V21h-13.14Zm29.02 0h-3.61V3.664H49.15V.492h16.065v3.172h-6.22V21Zm27.147 0H70.596v-2.693l10.65-14.643H71.143V.492h14.82v2.83L75.408 17.828h10.733V21ZM96.607.492h-3.609V21h3.61V.492ZM122.62 21h-4.074L107.854 6.084V21h-3.61V.492h4.074l10.692 14.93V.492h3.609V21Zm22.69-15.736a6.576 6.576 0 0 0-2.325-1.49 7.83 7.83 0 0 0-2.857-.52c-1.03 0-1.973.178-2.83.533a6.294 6.294 0 0 0-2.201 1.531 6.825 6.825 0 0 0-1.436 2.352c-.337.902-.506 1.905-.506 3.008 0 1.112.169 2.132.506 3.062.347.92.83 1.718 1.449 2.393a6.483 6.483 0 0 0 2.229 1.558c.857.365 1.8.547 2.83.547.893 0 1.714-.136 2.461-.41a6.028 6.028 0 0 0 1.969-1.203 6.423 6.423 0 0 0 1.408-1.9 7.818 7.818 0 0 0 .724-2.461h-6.48v-2.79h9.666l.096 1.368c0 1.558-.242 2.985-.725 4.28a9.845 9.845 0 0 1-2.037 3.349 9.132 9.132 0 0 1-3.145 2.174c-1.212.51-2.552.765-4.019.765-1.513 0-2.917-.269-4.211-.806a10.514 10.514 0 0 1-3.377-2.243 10.48 10.48 0 0 1-2.242-3.39c-.529-1.295-.793-2.703-.793-4.225 0-1.513.264-2.917.793-4.21a10.553 10.553 0 0 1 2.228-3.405 10.07 10.07 0 0 1 3.364-2.242c1.294-.538 2.693-.807 4.197-.807 1.431 0 2.798.246 4.101.738a11.038 11.038 0 0 1 3.514 2.12l-2.351 2.324ZM156.869 21V.492h13.002v3.172h-9.392v5.4h8.845v3.159h-8.845v5.605h9.529V21h-13.139Zm36.649 0h-4.006l-4.498-7.71h-3.883V21h-3.61V.492h7.561c1.595 0 2.958.255 4.088.766 1.13.51 2.001 1.244 2.611 2.201.611.948.916 2.092.916 3.432 0 1.421-.351 2.63-1.052 3.623-.702.984-1.696 1.704-2.981 2.16L193.518 21Zm-12.387-10.664h3.691c1.322 0 2.347-.292 3.076-.875.739-.583 1.108-1.404 1.108-2.461s-.365-1.878-1.094-2.46c-.729-.584-1.759-.876-3.09-.876h-3.691v6.672Z" fill="#fff"/></svg>