<svg width="830" height="88" viewBox="0 0 830 88" fill="none" xmlns="http://www.w3.org/2000/svg">
<rect width="830" height="88" fill="black"/>
<path d="M340.324 54H336.715V38.6191L331.014 50.5547H328.102L322.428 38.6875V54H318.818V33.4922H323.412L329.564 46.6035L335.703 33.4922H340.324V54ZM347.975 54V33.4922H360.977V36.6641H351.584V42.0645H360.43V45.2227H351.584V50.8281H361.113V54H347.975ZM376.994 54H373.385V36.6641H367.15V33.4922H383.215V36.6641H376.994V54ZM404.141 54H388.596V51.3066L399.246 36.6641H389.143V33.4922H403.963V36.3223L393.408 50.8281H404.141V54ZM414.607 33.4922H410.998V54H414.607V33.4922ZM440.619 54H436.545L425.854 39.084V54H422.244V33.4922H426.318L437.01 48.4219V33.4922H440.619V54ZM463.309 38.2637C462.661 37.6165 461.887 37.1198 460.984 36.7734C460.091 36.4271 459.139 36.2539 458.127 36.2539C457.097 36.2539 456.154 36.4316 455.297 36.7871C454.449 37.1426 453.715 37.653 453.096 38.3184C452.476 38.9746 451.997 39.7585 451.66 40.6699C451.323 41.5723 451.154 42.5749 451.154 43.6777C451.154 44.7897 451.323 45.8105 451.66 46.7402C452.007 47.6608 452.49 48.4583 453.109 49.1328C453.738 49.8073 454.481 50.3268 455.338 50.6914C456.195 51.056 457.138 51.2383 458.168 51.2383C459.061 51.2383 459.882 51.1016 460.629 50.8281C461.376 50.5456 462.033 50.1445 462.598 49.625C463.172 49.0964 463.641 48.4629 464.006 47.7246C464.37 46.9863 464.612 46.166 464.73 45.2637H458.25V42.4746H467.916L468.012 43.8418C468.012 45.4004 467.77 46.8268 467.287 48.1211C466.813 49.4062 466.134 50.5228 465.25 51.4707C464.366 52.4095 463.318 53.1341 462.105 53.6445C460.893 54.1549 459.553 54.4102 458.086 54.4102C456.573 54.4102 455.169 54.1413 453.875 53.6035C452.59 53.0658 451.464 52.3184 450.498 51.3613C449.541 50.3952 448.794 49.265 448.256 47.9707C447.727 46.6764 447.463 45.2682 447.463 43.7461C447.463 42.2331 447.727 40.8294 448.256 39.5352C448.794 38.2318 449.536 37.097 450.484 36.1309C451.441 35.1647 452.562 34.4173 453.848 33.8887C455.142 33.3509 456.541 33.082 458.045 33.082C459.476 33.082 460.843 33.3281 462.146 33.8203C463.459 34.3125 464.63 35.0189 465.66 35.9395L463.309 38.2637ZM474.869 54V33.4922H487.871V36.6641H478.479V42.0645H487.324V45.2227H478.479V50.8281H488.008V54H474.869ZM511.518 54H507.512L503.014 46.2891H499.131V54H495.521V33.4922H503.082C504.677 33.4922 506.04 33.7474 507.17 34.2578C508.3 34.7682 509.171 35.502 509.781 36.459C510.392 37.4069 510.697 38.5508 510.697 39.8906C510.697 41.3125 510.346 42.5202 509.645 43.5137C508.943 44.498 507.949 45.2181 506.664 45.6738L511.518 54ZM499.131 43.3359H502.822C504.144 43.3359 505.169 43.0443 505.898 42.4609C506.637 41.8776 507.006 41.0573 507.006 40C507.006 38.9427 506.641 38.1224 505.912 37.5391C505.183 36.9557 504.153 36.6641 502.822 36.6641H499.131V43.3359Z" fill="white"/>
</svg>
